<svg width="512" height="512" xmlns="http://www.w3.org/2000/svg">
 <!-- Created with UXWing SVG Editor - https://uxwing.com/svg-icon-editor/ -->

 <g>
  <title>background</title>
  <rect fill="none" id="canvas_background" height="514" width="514" y="-1" x="-1"/>
  <g display="none" overflow="visible" y="0" x="0" height="100%" width="100%" id="canvasGrid">
   <rect fill="url(#gridpattern)" stroke-width="0" y="0" x="0" height="100%" width="100%"/>
  </g>
 </g>
 <g>
  <title>Layer 1</title>
  <g stroke="null" id="svg_7">
   <g stroke="null" transform="matrix(4.142542023601725,0,0,4.142542023601725,-293.7584693196692,-293.7584471219344) " id="svg_5">
    <path stroke="null" fill="#ffffff" id="svg_6" d="m173.040744,120.965144c2.09,3.1 4.37,5.11 6.86,5.78c2.45,0.66 5.32,0.06 8.7,-2.01c1.36,-0.84 3.14,-0.41 3.97,0.95c0.28,0.46 0.42,0.96 0.43,1.47c0.13,1.4 0.21,2.82 0.24,4.26c0.03,1.46 0.02,2.91 -0.05,4.35l0,0l0,0c0,0.13 -0.01,0.26 -0.03,0.38c-0.91,16.72 -8.47,31.51 -20,41.93c-11.55,10.44 -27.06,16.49 -43.82,15.69l0,0.01l0,0c-0.13,0 -0.26,-0.01 -0.38,-0.03c-16.72,-0.91 -31.51,-8.47 -41.93,-20c-10.45,-11.55 -16.49,-27.06 -15.69,-43.82l0,0l0,0c0,-0.13 0.01,-0.26 0.03,-0.38c0.9,-16.74 8.71,-31.61 20.47,-42.09c11.77,-10.5 27.52,-16.6 44.28,-15.8l0,0l0,0c1.6,0 2.89,1.29 2.89,2.89c0,0.4 -0.08,0.78 -0.23,1.12c-1.17,3.81 -1.25,7.34 -0.27,10.14c0.89,2.54 2.7,4.51 5.41,5.52c1.44,0.54 2.2,2.1 1.74,3.55l0.01,0c-1.83,5.89 -1.87,11.08 -0.52,15.26c0.82,2.53 2.14,4.69 3.88,6.4c1.74,1.72 3.9,3 6.39,3.78c4.04,1.26 8.94,1.18 14.31,-0.55c1.27,-0.4 2.62,0.12 3.31,1.2l0,0zm-42.49,8.48c2.77,0 5.01,2.24 5.01,5.01c0,2.77 -2.24,5.01 -5.01,5.01c-2.77,0 -5.01,-2.24 -5.01,-5.01c0,-2.77 2.25,-5.01 5.01,-5.01l0,0zm-21.72,20.63c3.37,0 6.11,2.73 6.11,6.11s-2.73,6.11 -6.11,6.11s-6.11,-2.73 -6.11,-6.11s2.73,-6.11 6.11,-6.11l0,0zm13.16,-46.74c2.65,0 4.79,2.14 4.79,4.79c0,2.65 -2.14,4.79 -4.79,4.79c-2.65,0 -4.79,-2.14 -4.79,-4.79c0,-2.65 2.15,-4.79 4.79,-4.79l0,0zm68.58,0.65c1.98,0 3.58,1.6 3.58,3.58c0,1.98 -1.6,3.58 -3.58,3.58s-3.58,-1.6 -3.58,-3.58c-0.01,-1.97 1.6,-3.58 3.58,-3.58l0,0zm-25.68,-9.49c2.98,0 5.39,2.41 5.39,5.39c0,2.98 -2.41,5.39 -5.39,5.39c-2.98,0 -5.39,-2.41 -5.39,-5.39c0,-2.97 2.41,-5.39 5.39,-5.39l0,0zm4.17,-22.32c3.19,0 5.78,2.59 5.78,5.78c0,3.19 -2.59,5.78 -5.78,5.78c-3.19,0 -5.78,-2.59 -5.78,-5.78c0.01,-3.2 2.59,-5.78 5.78,-5.78l0,0zm-21.06,80.04c4.43,0 8.03,3.59 8.03,8.03c0,4.43 -3.59,8.03 -8.03,8.03s-8.03,-3.59 -8.03,-8.03c0,-4.44 3.59,-8.03 8.03,-8.03l0,0zm-44.82,-33.85c4.8,0 8.69,3.89 8.69,8.69c0,4.8 -3.89,8.69 -8.69,8.69s-8.69,-3.89 -8.69,-8.69c0,-4.79 3.89,-8.69 8.69,-8.69l0,0zm75.22,13.96c-3.39,-0.91 -6.35,-3.14 -8.95,-6.48c-5.78,1.52 -11.16,1.41 -15.76,-0.02c-3.37,-1.05 -6.32,-2.81 -8.71,-5.18c-2.39,-2.37 -4.21,-5.32 -5.32,-8.75c-1.51,-4.66 -1.69,-10.2 -0.18,-16.32c-3.1,-1.8 -5.25,-4.53 -6.42,-7.88c-1.06,-3.05 -1.28,-6.59 -0.61,-10.35c-13.91,0.19 -26.88,5.6 -36.77,14.42c-10.67,9.51 -17.75,22.97 -18.57,38.11l0,0.05l0,0l0,0l-0.01,0.13l0,0c-0.76,15.25 4.72,29.35 14.19,39.83c9.44,10.44 22.84,17.29 38,18.1l0.05,0l0,0l0,0l0.13,0.01l0,0c15.24,0.77 29.35,-4.71 39.83,-14.19c10.44,-9.44 17.29,-22.84 18.1,-38l0,-0.05l0,0l0,0l0.01,-0.13l0,0c0.07,-1.34 0.09,-2.64 0.06,-3.91c-3.22,1.21 -6.24,1.38 -9.07,0.61l0,0zm9.02,3.3l0,0l0,0l0,0zm-57.94,52.38l0,0l0,0l0,0z"/>
   </g>
  </g>
 </g>
</svg>